<?xml version="1.0" ?><!DOCTYPE svg  PUBLIC '-//W3C//DTD SVG 1.1//EN'  'http://www.w3.org/Graphics/SVG/1.1/DTD/svg11.dtd'><svg height="512px" style="enable-background:new 0 0 512 512;" version="1.1" viewBox="0 0 512 512" width="512px" xml:space="preserve" xmlns="http://www.w3.org/2000/svg" xmlns:xlink="http://www.w3.org/1999/xlink"><g id="Dislike_x2C__down_x2C__thumbs"><g><path d="M89.049,261.047c0.064,16.812,12.396,30.394,27.54,30.325c72.499-0.295-11.817,0.174,108.291-0.307    c0,0-14.843,57.825-14.737,85.411c0.242,60.151,43.364,53.781,49.485,44.361c11.353-102.304,27.949-116.948,74.134-137.289    c0.59-0.258,1.501-0.519,2.659-0.772c1.302,9.753,9.519,17.35,19.646,17.448l44.932,0.45c11.104,0.112,20.19-8.796,20.305-19.899    l1.646-163.125c0.113-11.096-8.8-20.19-19.903-20.3l-44.932-0.454c-11.104-0.109-20.194,8.8-20.308,19.903l-0.019,1.997    c-23.527-9.227-44.993-33.771-65.875-33.688l-97.19,0.386c-3.151,0.015-6.17,0.802-8.964,2.122    c-11.56,3.605-20.066,15.303-20.009,29.285c0.007,2.338,0.293,4.574,0.75,6.742c-11.83,3.409-20.582,15.268-20.531,29.478    c0.03,7.316,2.491,13.944,6.401,19.184c-0.104,0.345-0.21,0.685-0.314,1.033l-2.868,0.015    c-15.147,0.061-27.371,13.737-27.3,30.549c0.045,11.104,5.493,20.689,13.507,25.982c-0.07,0.223-0.134,0.454-0.201,0.681    C100.588,231.302,88.985,244.667,89.049,261.047z M379.545,111.801c8.894-0.042,16.135,7.135,16.176,16.025    c0.042,8.891-7.135,16.135-16.024,16.177c-8.895,0.042-16.136-7.135-16.177-16.025    C363.478,119.087,370.654,111.843,379.545,111.801z"/></g></g><g id="Layer_1"/></svg>