<?xml version="1.0" ?><!DOCTYPE svg  PUBLIC '-//W3C//DTD SVG 1.1//EN'  'http://www.w3.org/Graphics/SVG/1.1/DTD/svg11.dtd'><svg height="512px" style="enable-background:new 0 0 512 512;" version="1.1" viewBox="0 0 512 512" width="512px" xml:space="preserve" xmlns="http://www.w3.org/2000/svg" xmlns:xlink="http://www.w3.org/1999/xlink"><g id="Thumbs_x2C__up"><g><path d="M423.281,251.71c0.015-16.814-12.257-30.45-27.397-30.456c-72.5-0.043,11.819-0.115-108.296-0.197    c0,0,15.118-57.755,15.141-85.339c0.038-60.157-43.109-53.987-49.277-44.591c-11.833,102.247-28.494,116.812-74.777,136.938    c-0.59,0.257-1.502,0.511-2.663,0.762c-1.252-9.76-9.435-17.395-19.559-17.542l-44.928-0.66    c-11.107-0.165-20.236,8.703-20.398,19.804l-2.406,163.112c-0.167,11.096,8.701,20.232,19.808,20.396l44.928,0.661    c11.1,0.163,20.232-8.701,20.399-19.808l0.03-1.998c23.482,9.34,44.834,33.983,65.713,33.995l97.194,0.068    c3.147,0,6.174-0.772,8.974-2.081c11.575-3.549,20.133-15.208,20.141-29.19c0.008-2.334-0.271-4.574-0.719-6.745    c11.849-3.352,20.656-15.171,20.672-29.38c0-7.316-2.43-13.955-6.311-19.215c0.105-0.34,0.211-0.685,0.317-1.032h2.867    c15.147,0.011,27.436-13.607,27.442-30.42c0.008-11.104-5.395-20.721-13.384-26.047c0.068-0.223,0.136-0.453,0.2-0.681    C411.603,281.396,423.266,268.087,423.281,251.71z M132.094,399.595c-8.895,0-16.101-7.21-16.101-16.101    c0-8.89,7.207-16.101,16.101-16.101c8.894,0,16.101,7.211,16.101,16.101C148.194,392.385,140.988,399.595,132.094,399.595z"/></g></g><g id="Layer_1"/></svg>